<svg width="358" height="307" viewBox="0 0 358 307" fill="none" xmlns="http://www.w3.org/2000/svg">
    <path d="M188 262.5C183.325 262.5 179.323 260.835 175.994 257.506C172.665 254.177 171 250.175 171 245.5V186H188V245.5H264.5V262.5H188ZM222 228.5C217.325 228.5 213.323 226.835 209.994 223.506C206.665 220.177 205 216.175 205 211.5V152H222V211.5H298.5V228.5H222ZM256 194.5C251.325 194.5 247.323 192.835 243.994 189.506C240.665 186.177 239 182.175 239 177.5V126.5C239 121.825 240.665 117.823 243.994 114.494C247.323 111.165 251.325 109.5 256 109.5H324C328.675 109.5 332.677 111.165 336.006 114.494C339.335 117.823 341 121.825 341 126.5V177.5C341 182.175 339.335 186.177 336.006 189.506C332.677 192.835 328.675 194.5 324 194.5H256ZM256 177.5H324V143.5H256V177.5Z" fill="white"/>
    <path d="M34.1 307C24.7225 307 16.6948 303.66 10.0169 296.98C3.33896 290.3 0 282.269 0 272.889V153.5H34.1V272.889H187.55V307H34.1ZM102.3 238.778C92.9225 238.778 84.8948 235.438 78.2169 228.758C71.539 222.078 68.2 214.047 68.2 204.667V85.2778H102.3V204.667H255.75V238.778H102.3ZM170.5 170.556C161.122 170.556 153.095 167.216 146.417 160.535C139.739 153.855 136.4 145.825 136.4 136.444V34.1111C136.4 24.7306 139.739 16.7002 146.417 10.0201C153.095 3.34005 161.122 0 170.5 0H306.9C316.277 0 324.305 3.34005 330.983 10.0201C337.661 16.7002 341 24.7306 341 34.1111V136.444C341 145.825 337.661 153.855 330.983 160.535C324.305 167.216 316.277 170.556 306.9 170.556H170.5ZM170.5 136.444H306.9V68.2222H170.5V136.444Z" fill="white" fill-opacity="0.05"/>
</svg>
