<svg width="247" height="205" viewBox="0 0 247 205" fill="none" xmlns="http://www.w3.org/2000/svg">
    <path d="M22.7778 205C16.5139 205 11.1516 202.77 6.69097 198.309C2.23032 193.848 0 188.486 0 182.222V22.7778C0 16.5139 2.23032 11.1516 6.69097 6.69097C11.1516 2.23032 16.5139 0 22.7778 0H102.5V22.7778H22.7778V182.222H102.5V205H22.7778ZM148.056 159.444L132.396 142.931L161.438 113.889H68.3333V91.1111H161.438L132.396 62.0694L148.056 45.5556L205 102.5L148.056 159.444Z" fill="white" fill-opacity="0.05"/>
    <path d="M150.111 139C146.781 139 143.929 137.814 141.558 135.442C139.186 133.071 138 130.219 138 126.889V42.1111C138 38.7806 139.186 35.9294 141.558 33.5576C143.929 31.1859 146.781 30 150.111 30H192.5V42.1111H150.111V126.889H192.5V139H150.111ZM216.722 114.778L208.396 105.997L223.838 90.5556H174.333V78.4444H223.838L208.396 63.0028L216.722 54.2222L247 84.5L216.722 114.778Z" fill="white"/>
</svg>
