<svg width="257" height="184" viewBox="0 0 257 184" fill="none" xmlns="http://www.w3.org/2000/svg">
    <path d="M139.1 127C135.497 127 132.414 125.715 129.848 123.145C127.283 120.574 126 117.484 126 113.875V94.1875H139.1V113.875H243.9V35.125H139.1V54.8125H126V35.125C126 31.5156 127.283 28.4258 129.848 25.8555C132.414 23.2852 135.497 22 139.1 22H243.9C247.502 22 250.586 23.2852 253.152 25.8555C255.717 28.4258 257 31.5156 257 35.125V113.875C257 117.484 255.717 120.574 253.152 123.145C250.586 125.715 247.502 127 243.9 127H139.1ZM188.225 104.031L179.055 94.5156L192.646 81.0625H126V67.9375H192.646L179.055 54.4844L188.225 44.9688L217.7 74.5L188.225 104.031Z" fill="white"/>
    <path d="M22.4 184C16.24 184 10.9667 181.748 6.58 177.244C2.19333 172.74 0 167.325 0 161V126.5H22.4V161H201.6V23H22.4V57.5H0V23C0 16.675 2.19333 11.2604 6.58 6.75625C10.9667 2.25208 16.24 0 22.4 0H201.6C207.76 0 213.033 2.25208 217.42 6.75625C221.807 11.2604 224 16.675 224 23V161C224 167.325 221.807 172.74 217.42 177.244C213.033 181.748 207.76 184 201.6 184H22.4ZM106.4 143.75L90.72 127.075L113.96 103.5H0V80.5H113.96L90.72 56.925L106.4 40.25L156.8 92L106.4 143.75Z" fill="white" fill-opacity="0.05"/>
</svg>
