<svg width="247" height="203" viewBox="0 0 247 203" fill="none" xmlns="http://www.w3.org/2000/svg">
    <path d="M174 148.75V136.583H216.583V51.4167H174V39.25H216.583C219.929 39.25 222.793 40.4413 225.176 42.824C227.559 45.2066 228.75 48.0708 228.75 51.4167V136.583C228.75 139.929 227.559 142.793 225.176 145.176C222.793 147.559 219.929 148.75 216.583 148.75H174ZM161.833 124.417L153.469 115.596L168.981 100.083H119.25V87.9167H168.981L153.469 72.4042L161.833 63.5833L192.25 94L161.833 124.417Z" fill="white"/>
    <path d="M102 203V180.444H181.333V22.5556H102V0H181.333C187.567 0 192.903 2.20856 197.342 6.62569C201.781 11.0428 204 16.3528 204 22.5556V180.444C204 186.647 201.781 191.957 197.342 196.374C192.903 200.791 187.567 203 181.333 203H102ZM79.3333 157.889L63.75 141.536L92.65 112.778H0V90.2222H92.65L63.75 61.4639L79.3333 45.1111L136 101.5L79.3333 157.889Z" fill="white" fill-opacity="0.05"/>
</svg>
